<?xml version="1.0" encoding="UTF-8" standalone="no"?>
<!-- Created with Inkscape (http://www.inkscape.org/) -->

<svg
   xmlns:dc="http://purl.org/dc/elements/1.1/"
   xmlns:cc="http://creativecommons.org/ns#"
   xmlns:rdf="http://www.w3.org/1999/02/22-rdf-syntax-ns#"
   xmlns:svg="http://www.w3.org/2000/svg"
   xmlns="http://www.w3.org/2000/svg"
   xmlns:sodipodi="http://sodipodi.sourceforge.net/DTD/sodipodi-0.dtd"
   xmlns:inkscape="http://www.inkscape.org/namespaces/inkscape"
   width="40"
   height="40"
   viewBox="0 0 10.583333 10.583334"
   version="1.1"
   id="svg6928"
   inkscape:version="0.92.5 (2060ec1f9f, 2020-04-08)"
   sodipodi:docname="cat.svg">
  <defs
     id="defs6922" />
  <sodipodi:namedview
     id="base"
     pagecolor="#ffffff"
     bordercolor="#666666"
     borderopacity="1.0"
     inkscape:pageopacity="0.0"
     inkscape:pageshadow="2"
     inkscape:zoom="16.097357"
     inkscape:cx="10.130278"
     inkscape:cy="15.418666"
     inkscape:document-units="px"
     inkscape:current-layer="g8053"
     showgrid="false"
     units="px"
     inkscape:window-width="1920"
     inkscape:window-height="1017"
     inkscape:window-x="-8"
     inkscape:window-y="-8"
     inkscape:window-maximized="1" />
  <metadata
     id="metadata6925">
    <rdf:RDF>
      <cc:Work
         rdf:about="">
        <dc:format>image/svg+xml</dc:format>
        <dc:type
           rdf:resource="http://purl.org/dc/dcmitype/StillImage" />
        <dc:title />
      </cc:Work>
    </rdf:RDF>
  </metadata>
  <g
     inkscape:label="Layer 1"
     inkscape:groupmode="layer"
     id="layer1"
     transform="translate(0,-286.41665)">
    <g
       id="g8053"
       transform="translate(-0.34185596,0.49908463)">
      <path
         sodipodi:nodetypes="ccccccccsczcc"
         inkscape:connector-curvature="0"
         id="path7473"
         d="m 3.0923177,295.36288 c -0.2800664,-0.18391 -0.4369554,-0.57935 0.248047,-0.89297 -0.086332,-2.05859 -0.635406,-2.42609 0.066146,-4.0349 0,0 -0.5153696,0.0764 -1.1575521,-0.23153 -0.2204861,-0.27561 -0.4910133,-0.46845 -0.3638021,-0.90951 0.7199088,-0.58691 0.096773,-1.04277 1.4055989,-1.28983 L 3.141927,287.04501 c 0.7928533,0.30391 0.8252415,0.39792 1.2071615,0.89298 0.3638021,0.24804 0.4596003,0.29654 0.6635941,0.69303 0.3165133,0.61519 0.1737386,1.05826 0.278984,1.68822 0.3058106,1.3451 1.6022626,1.33451 2.265495,2.56314 0.6632324,1.22863 -0.1488287,2.46394 -0.1488287,2.46394 z"
         style="fill:none;stroke:#848484;stroke-width:0.3175;stroke-linecap:butt;stroke-linejoin:round;stroke-miterlimit:4;stroke-dasharray:none;stroke-opacity:1" />
      <path
         sodipodi:nodetypes="csasc"
         inkscape:connector-curvature="0"
         id="path7475"
         d="m 7.5240881,295.28017 c 2.5107579,0.30369 1.9143978,-2.0163 1.2071621,-2.69542 -0.8091734,-0.777 -1.5848275,-1.11381 -1.6536458,-1.96784 -0.031966,-0.3967 0.1673058,-0.88817 0.611849,-1.02527 0.6204914,-0.19137 0.9756514,0.21498 0.9756514,0.21498"
         style="fill:none;stroke:#848484;stroke-width:0.42333334;stroke-linecap:round;stroke-linejoin:round;stroke-miterlimit:4;stroke-dasharray:none;stroke-opacity:1" />
    </g>
  </g>
</svg>
