<?xml version="1.0" encoding="UTF-8" standalone="no"?>
<!-- Created with Inkscape (http://www.inkscape.org/) -->

<svg
   xmlns:dc="http://purl.org/dc/elements/1.1/"
   xmlns:cc="http://creativecommons.org/ns#"
   xmlns:rdf="http://www.w3.org/1999/02/22-rdf-syntax-ns#"
   xmlns:svg="http://www.w3.org/2000/svg"
   xmlns="http://www.w3.org/2000/svg"
   xmlns:sodipodi="http://sodipodi.sourceforge.net/DTD/sodipodi-0.dtd"
   xmlns:inkscape="http://www.inkscape.org/namespaces/inkscape"
   width="40"
   height="40"
   viewBox="0 0 10.583333 10.583333"
   version="1.1"
   id="svg8118"
   inkscape:version="0.92.5 (2060ec1f9f, 2020-04-08)"
   sodipodi:docname="cow-solid.svg">
  <defs
     id="defs8112" />
  <sodipodi:namedview
     id="base"
     pagecolor="#ffffff"
     bordercolor="#666666"
     borderopacity="1.0"
     inkscape:pageopacity="0.0"
     inkscape:pageshadow="2"
     inkscape:zoom="8.154709"
     inkscape:cx="-22.885339"
     inkscape:cy="16.971074"
     inkscape:document-units="px"
     inkscape:current-layer="layer1"
     showgrid="false"
     objecttolerance="1"
     gridtolerance="1"
     guidetolerance="1"
     units="px"
     inkscape:window-width="1920"
     inkscape:window-height="1017"
     inkscape:window-x="-8"
     inkscape:window-y="-8"
     inkscape:window-maximized="1"
     showguides="true"
     inkscape:guide-bbox="true" />
  <metadata
     id="metadata8115">
    <rdf:RDF>
      <cc:Work
         rdf:about="">
        <dc:format>image/svg+xml</dc:format>
        <dc:type
           rdf:resource="http://purl.org/dc/dcmitype/StillImage" />
        <dc:title></dc:title>
      </cc:Work>
    </rdf:RDF>
  </metadata>
  <g
     inkscape:label="Layer 1"
     inkscape:groupmode="layer"
     id="layer1"
     transform="translate(0,-286.41667)"
     style="display:inline">
    <g
       style="display:inline;opacity:1"
       inkscape:label="Layer 1"
       id="g4589"
       transform="matrix(1.0636931,0,0,1.1588539,-0.33729652,-58.605422)">
      <g
         id="g4587"
         transform="translate(0.10941705,-0.03468048)">
        <g
           id="g4585"
           transform="translate(-0.01308159,-0.27646495)">
          <path
             style="fill:#000000;fill-opacity:1;stroke:#000000;stroke-width:0.09999999;stroke-linecap:butt;stroke-linejoin:round;stroke-miterlimit:4;stroke-dasharray:none;stroke-opacity:1"
             d="m 50.941406,46.181641 c -0.636218,1.826233 -0.641148,3.159663 0.154297,5.060547 0.83873,2.004321 4.128906,2.658203 4.128906,2.658203 0,0 -0.09911,0.240774 -0.177734,0.43164 -4.346803,-1.493178 -8.682089,-1.590746 -10.447266,2.302735 0.988725,3.048113 5.652512,3.008149 7.867188,1.457031 1.006269,-0.704806 2.418942,-3.426735 2.544922,-3.671875 -0.441225,1.083213 -1.552962,3.945095 -1.982422,6.394531 -0.430046,3.802999 1.700416,5.504885 1.771484,6.482422 0.112611,1.549002 0.337743,2.726333 0.69336,3.710937 l 0.0059,-0.0293 c 0.0019,-0.01512 0.0045,-0.03018 0.0078,-0.04492 0.0133,-0.0548 0.03575,-0.107053 0.06641,-0.154297 0.0011,-0.0038 0.0067,-0.004 0.0078,-0.0078 0.307782,-1.157064 0.653381,-2.013638 1.136719,-2.568359 0.51403,-0.589909 1.182402,-0.856611 1.859375,-0.902344 1.353947,-0.09184 2.81322,0.458985 4.724609,0.458985 1.903873,0 3.208521,-0.580443 4.503907,-0.509766 0.647693,0.03402 1.29384,0.297464 1.822265,0.878906 0.528426,0.581481 0.974741,1.445344 1.425782,2.744141 0.0021,0.0076 0.0041,0.01588 0.0059,0.02344 l 0.01758,0.0625 c 0.327727,-0.995414 0.563081,-2.217397 0.667969,-3.660156 0.07106,-0.977537 2.199578,-2.679423 1.769531,-6.482422 -0.536546,-3.060208 -2.195312,-6.914062 -2.195313,-6.914062 0,0 3.29213,-0.653882 4.13086,-2.658203 0.795715,-1.901519 0.789196,-3.235326 0.152344,-5.0625 -1.613087,2.040075 -2.150153,2.611389 -3.623047,3.603515 -1.719576,1.15835 -2.368709,0.556603 -3.53125,0.22461 -1.674678,-0.253229 -3.387118,-0.418349 -5.175781,-0.429688 -1.788666,0.01134 -3.503057,0.176497 -5.177735,0.429688 -1.16254,0.331842 -1.811673,0.933589 -3.53125,-0.22461 -1.472894,-0.992126 -2.009955,-1.56344 -3.623047,-3.603515 z m 25.4375,7.195312 c -1.493388,0.03024 -3.124613,0.395923 -4.755859,0.957031 0,0 1.537063,3.020427 2.589844,3.757813 2.214677,1.551118 6.878462,1.591082 7.867187,-1.457031 -1.104041,-2.435226 -3.212186,-3.310197 -5.701172,-3.257813 z m -19.443359,5.230469 c 0.824253,-0.01818 1.867184,0.407586 1.994141,1.15039 0.104089,0.608997 -0.715858,1.143114 -1.310547,1.310547 -0.865042,0.243667 -2.352838,0.226905 -2.621094,-0.630859 -0.239446,-0.765619 0.815015,-1.637316 1.601562,-1.794922 0.105553,-0.02116 0.218187,-0.03256 0.335938,-0.03516 z m 12.542969,0 c 0.11775,0.0026 0.232338,0.014 0.33789,0.03516 0.786548,0.157606 1.841009,1.029303 1.601563,1.794922 -0.268256,0.857764 -1.756052,0.874526 -2.621094,0.630859 -0.594689,-0.167433 -1.414636,-0.701551 -1.310547,-1.310547 0.126956,-0.742804 1.167934,-1.168567 1.992188,-1.15039 z m -1.72461,9.636719 c -0.903695,-0.04951 -2.356081,0.515625 -4.451172,0.515625 -2.091348,0 -3.66744,-0.53212 -4.658203,-0.464844 -0.495382,0.03402 -0.826062,0.161391 -1.173828,0.560547 -0.346828,0.39806 -0.696404,1.116972 -0.996094,2.310547 -8.08e-4,0.0038 8.07e-4,0.004 0,0.0078 -0.0021,0.01134 -0.0047,0.02659 -0.0078,0.03906 l -0.220703,1.326171 c 0.164591,0.258143 0.337803,0.510997 0.533203,0.753907 2.69255,2.70085 9.849501,3.053783 13.021484,0 0.236187,-0.246425 0.456089,-0.553621 0.660157,-0.91211 l -0.351563,-1.185547 c -0.428748,-1.235149 -0.842539,-1.984428 -1.21875,-2.398437 -0.37621,-0.414161 -0.684871,-0.526278 -1.136719,-0.552734 z m -9.103515,0.417968 c 0.296005,0.06501 0.184667,0.579747 0.58789,1.091797 0.823152,0.635566 1.300659,-0.142886 2.00586,1.029297 0.477447,0.793739 0.216778,1.15322 -0.205079,1.458985 -0.548675,0.396774 -1.80664,0.01563 -1.80664,0.01562 v 0.002 c -0.789126,-0.209764 -1.627381,-2.200338 -0.996094,-3.517578 0.103151,-0.0412 0.189353,-0.06603 0.259766,-0.07813 0.06161,-0.01134 0.112011,-0.01129 0.154297,-0.002 z m 9.30664,0 c 0.04229,-0.0076 0.09269,-0.0076 0.154297,0.002 0.07041,0.01134 0.154662,0.03768 0.257813,0.07813 0.631288,1.31724 -0.205017,3.307776 -0.994141,3.517578 v -0.002 c 0,0 -1.257967,0.382574 -1.806641,-0.01367 -0.421859,-0.305764 -0.684479,-0.665246 -0.207031,-1.458985 0.7052,-1.172371 1.184661,-0.393731 2.007813,-1.029297 0.403223,-0.51205 0.291884,-1.026901 0.58789,-1.091797 z"
             transform="matrix(0.26458333,0,0,0.26458333,-11.563097,286.51319)"
             id="path4571"
             inkscape:connector-curvature="0" />
          <g
             id="g4597" />
        </g>
      </g>
    </g>
  </g>
</svg>
