<?xml version="1.0" encoding="UTF-8" standalone="no"?>
<!-- Created with Inkscape (http://www.inkscape.org/) -->

<svg
   xmlns:dc="http://purl.org/dc/elements/1.1/"
   xmlns:cc="http://creativecommons.org/ns#"
   xmlns:rdf="http://www.w3.org/1999/02/22-rdf-syntax-ns#"
   xmlns:svg="http://www.w3.org/2000/svg"
   xmlns="http://www.w3.org/2000/svg"
   xmlns:sodipodi="http://sodipodi.sourceforge.net/DTD/sodipodi-0.dtd"
   xmlns:inkscape="http://www.inkscape.org/namespaces/inkscape"
   width="40"
   height="40"
   viewBox="0 0 10.583333 10.583333"
   version="1.1"
   id="svg8118"
   inkscape:version="0.92.5 (2060ec1f9f, 2020-04-08)"
   sodipodi:docname="cow.svg">
  <defs
     id="defs8112" />
  <sodipodi:namedview
     id="base"
     pagecolor="#ffffff"
     bordercolor="#666666"
     borderopacity="1.0"
     inkscape:pageopacity="0.0"
     inkscape:pageshadow="2"
     inkscape:zoom="21.077604"
     inkscape:cx="34.823188"
     inkscape:cy="20.598632"
     inkscape:document-units="px"
     inkscape:current-layer="layer1"
     showgrid="false"
     objecttolerance="1"
     gridtolerance="1"
     guidetolerance="1"
     units="px"
     inkscape:window-width="1920"
     inkscape:window-height="1017"
     inkscape:window-x="-8"
     inkscape:window-y="-8"
     inkscape:window-maximized="1" />
  <metadata
     id="metadata8115">
    <rdf:RDF>
      <cc:Work
         rdf:about="">
        <dc:format>image/svg+xml</dc:format>
        <dc:type
           rdf:resource="http://purl.org/dc/dcmitype/StillImage" />
        <dc:title></dc:title>
      </cc:Work>
    </rdf:RDF>
  </metadata>
  <g
     inkscape:label="Layer 1"
     inkscape:groupmode="layer"
     id="layer1"
     transform="translate(0,-286.41667)">
    <g
       id="g8785"
       transform="translate(0.10941705,-0.03468048)">
      <ellipse
         ry="1.0881417"
         rx="1.9518363"
         cy="294.8024"
         cx="5.1852832"
         id="path8665"
         style="fill:none;fill-opacity:1;stroke:#000000;stroke-width:0.26458332;stroke-linecap:round;stroke-linejoin:round;stroke-miterlimit:4;stroke-dasharray:none;stroke-opacity:1" />
      <path
         sodipodi:nodetypes="csccsczcczcsccsc"
         inkscape:connector-curvature="0"
         id="path8667-4"
         d="m 6.8897655,295.32203 c 0.5794679,-0.64119 0.6214387,-0.97424 0.6778013,-1.74952 0.018802,-0.25864 0.7830456,-0.54569 0.6692625,-1.5519 -0.1419613,-0.80968 -0.9447875,-1.82946 -0.9447875,-1.82946 0,0 1.0448343,-0.70985 0.9795949,-1.28101 -0.047428,-0.41524 -0.6994057,-1.20721 -0.9760623,-1.27638 0,0 0.021619,0.8325 -0.049156,1.16394 -0.070772,0.33143 -0.5948809,0.75294 -0.6890721,0.79062 -0.9897299,-0.17105 -1.8886636,-0.13024 -2.7492724,0 -0.094191,-0.0377 -0.562374,-0.43122 -0.633146,-0.76265 -0.070775,-0.33144 -0.1050823,-1.19191 -0.1050823,-1.19191 -0.2766565,0.0692 -0.9286341,0.86114 -0.9760621,1.27638 -0.065239,0.57116 0.9795947,1.28101 0.9795947,1.28101 0,0 -0.8028261,1.01978 -0.9447873,1.82946 -0.1137831,1.00621 0.6504602,1.29326 0.6692622,1.5519 0.056363,0.77528 0.098333,1.10833 0.6778012,1.74952"
         style="fill:none;stroke:#000000;stroke-width:0.26458332;stroke-linecap:butt;stroke-linejoin:miter;stroke-miterlimit:4;stroke-dasharray:none;stroke-opacity:1" />
      <path
         sodipodi:nodetypes="ccsc"
         inkscape:connector-curvature="0"
         id="path8669-0"
         d="m 7.3607979,290.22911 c 0.9170577,-0.30088 1.8321757,-0.32116 2.2045793,0.46231 -0.2084416,0.61291 -1.1918638,0.6051 -1.6587584,0.2932 -0.2219452,-0.14827 -0.5458209,-0.75551 -0.5458209,-0.75551 z"
         style="fill:none;stroke:#000000;stroke-width:0.26458332;stroke-linecap:butt;stroke-linejoin:miter;stroke-miterlimit:4;stroke-dasharray:none;stroke-opacity:1" />
      <path
         sodipodi:nodetypes="ccsccc"
         inkscape:connector-curvature="0"
         id="path8713"
         d="m 3.9232601,295.20117 c 0.2611979,0.14118 0.2541386,0.32472 0.5435742,0.29649 0.2894357,-0.0282 0.487099,-0.19767 0.3600297,-0.33885 -0.1270693,-0.14119 -0.225901,-0.28238 -0.416505,-0.40239 -0.190604,-0.12001 -0.4376831,-0.32473 -0.6141682,-0.16943 -0.087842,0.26566 -0.00918,0.53536 0.1270693,0.61418 z"
         style="fill:#000000;fill-opacity:1;stroke:none;stroke-width:0.04455796px;stroke-linecap:butt;stroke-linejoin:miter;stroke-opacity:1" />
      <path
         sodipodi:nodetypes="ccsccc"
         inkscape:connector-curvature="0"
         id="path8713-7"
         d="m 6.4604509,295.1698 c -0.2611979,0.14118 -0.2541386,0.32472 -0.5435742,0.29649 -0.2894357,-0.0282 -0.487099,-0.19767 -0.3600297,-0.33885 0.1270693,-0.14119 0.225901,-0.28238 0.416505,-0.40239 0.190604,-0.12001 0.4376831,-0.32473 0.6141682,-0.16943 0.087842,0.26566 0.00918,0.53536 -0.1270693,0.61418 z"
         style="fill:#000000;fill-opacity:1;stroke:none;stroke-width:0.04455796px;stroke-linecap:butt;stroke-linejoin:miter;stroke-opacity:1" />
      <ellipse
         ry="0.48935318"
         rx="0.40546405"
         cy="291.81287"
         cx="3.6771398"
         id="path8730"
         style="fill:#000000;fill-opacity:1;stroke:none;stroke-width:0.26458332;stroke-linecap:round;stroke-linejoin:round;stroke-miterlimit:4;stroke-dasharray:none;stroke-opacity:1" />
      <ellipse
         ry="0.48935318"
         rx="0.40546405"
         cy="291.81287"
         cx="6.5713139"
         id="path8730-2"
         style="fill:#000000;fill-opacity:1;stroke:none;stroke-width:0.26458332;stroke-linecap:round;stroke-linejoin:round;stroke-miterlimit:4;stroke-dasharray:none;stroke-opacity:1" />
      <path
         sodipodi:nodetypes="ccsc"
         inkscape:connector-curvature="0"
         id="path8669-0-5"
         d="m 3.003699,290.22911 c -0.9170577,-0.30088 -1.8321758,-0.32116 -2.20457734,0.46231 0.20844174,0.61291 1.19186184,0.6051 1.65875644,0.2932 0.2219452,-0.14827 0.5458209,-0.75551 0.5458209,-0.75551 z"
         style="fill:none;stroke:#000000;stroke-width:0.26458332;stroke-linecap:butt;stroke-linejoin:miter;stroke-miterlimit:4;stroke-dasharray:none;stroke-opacity:1" />
    </g>
  </g>
</svg>
