<?xml version="1.0" encoding="UTF-8" standalone="no"?>
<!-- Created with Inkscape (http://www.inkscape.org/) -->

<svg
   xmlns:dc="http://purl.org/dc/elements/1.1/"
   xmlns:cc="http://creativecommons.org/ns#"
   xmlns:rdf="http://www.w3.org/1999/02/22-rdf-syntax-ns#"
   xmlns:svg="http://www.w3.org/2000/svg"
   xmlns="http://www.w3.org/2000/svg"
   xmlns:sodipodi="http://sodipodi.sourceforge.net/DTD/sodipodi-0.dtd"
   xmlns:inkscape="http://www.inkscape.org/namespaces/inkscape"
   width="40"
   height="40"
   viewBox="0 0 10.583333 10.583333"
   version="1.1"
   id="svg8118"
   inkscape:version="0.92.5 (2060ec1f9f, 2020-04-08)"
   sodipodi:docname="cow.svg">
  <defs
     id="defs8112" />
  <sodipodi:namedview
     id="base"
     pagecolor="#ffffff"
     bordercolor="#666666"
     borderopacity="1.0"
     inkscape:pageopacity="0.0"
     inkscape:pageshadow="2"
     inkscape:zoom="14.567147"
     inkscape:cx="27.922457"
     inkscape:cy="13.673717"
     inkscape:document-units="px"
     inkscape:current-layer="layer3"
     showgrid="false"
     objecttolerance="1"
     gridtolerance="1"
     guidetolerance="1"
     units="px"
     inkscape:window-width="1920"
     inkscape:window-height="1017"
     inkscape:window-x="-8"
     inkscape:window-y="-8"
     inkscape:window-maximized="1"
     showguides="true"
     inkscape:guide-bbox="true" />
  <metadata
     id="metadata8115">
    <rdf:RDF>
      <cc:Work
         rdf:about="">
        <dc:format>image/svg+xml</dc:format>
        <dc:type
           rdf:resource="http://purl.org/dc/dcmitype/StillImage" />
        <dc:title />
      </cc:Work>
    </rdf:RDF>
  </metadata>
  <g
     inkscape:groupmode="layer"
     id="layer3"
     inkscape:label="OUTLINE"
     transform="translate(0,-286.41667)"
     style="display:inline;opacity:1">
    <g
       style="display:inline;opacity:1"
       transform="translate(2.4258814e-7,4.5663142e-6)"
       id="layer1"
       inkscape:label="Layer 1">
      <path
         style="fill:none;fill-opacity:1;stroke:#000000;stroke-width:0.26458332;stroke-linecap:round;stroke-linejoin:round;stroke-miterlimit:4;stroke-dasharray:none;stroke-opacity:1"
         d="m 7.233455,294.49125 c -1.7e-6,0.60096 -0.8738681,1.08814 -1.9518363,1.08814 -1.0779683,0 -1.9518347,-0.48718 -1.9518364,-1.08814 0.3263749,-1.40434 0.8738681,-0.81198 1.9518364,-0.81198 1.0779682,0 1.4748275,-0.63002 1.9518363,0.81198 z"
         id="path8665-5"
         inkscape:connector-curvature="0"
         sodipodi:nodetypes="cscsc" />
      <path
         sodipodi:nodetypes="csccscscccscsccsc"
         inkscape:connector-curvature="0"
         id="path8667-4-0"
         d="m 3.546884,295.01087 c -0.4664926,-0.64119 -0.4582516,-0.81105 -0.5146146,-1.58633 -0.018802,-0.25864 -0.5822002,-0.70888 -0.4684171,-1.71509 0.1419612,-0.80968 0.5807556,-1.82946 0.5807556,-1.82946 0,0 -0.8706562,-0.17326 -1.09257,-0.70357 -0.2105326,-0.50311 -0.209217,-0.85572 -0.040716,-1.33916 0.4267958,0.53977 0.5689707,0.69091 0.9586739,0.95341 0.4549712,0.30648 0.6268247,0.1475 0.9344136,0.0597 0.4430919,-0.067 0.8963429,-0.11034 1.3695935,-0.11334 0.4732507,0.003 0.9265017,0.0463 1.3695936,0.11334 0.3075889,0.0878 0.4794423,0.24678 0.9344134,-0.0597 0.3897033,-0.2625 0.5318782,-0.41364 0.9586739,-0.95341 0.1685009,0.48344 0.1698168,0.83605 -0.040716,1.33916 -0.2219139,0.53031 -1.09257,0.70357 -1.09257,0.70357 0,0 0.4387942,1.01978 0.5807555,1.82946 0.1137831,1.00621 -0.449615,1.45645 -0.468417,1.71509 -0.056363,0.77528 -0.048122,0.94514 -0.5146146,1.58633"
         style="fill:none;stroke:#000000;stroke-width:0.26458332;stroke-linecap:butt;stroke-linejoin:round;stroke-miterlimit:4;stroke-dasharray:none;stroke-opacity:1" />
      <path
         sodipodi:nodetypes="ccsc"
         inkscape:connector-curvature="0"
         id="path8669-0-1"
         d="m 7.4834377,289.99491 c 1.1509349,-0.3959 2.2994354,-0.42258 2.7668123,0.60832 -0.2615997,0.80648 -1.495824,0.7962 -2.0817907,0.3858 -0.2785479,-0.1951 -0.6850216,-0.99412 -0.6850216,-0.99412 z"
         style="fill:none;stroke:#000000;stroke-width:0.26458332;stroke-linecap:butt;stroke-linejoin:miter;stroke-miterlimit:4;stroke-dasharray:none;stroke-opacity:1" />
      <path
         sodipodi:nodetypes="csscccc"
         inkscape:connector-curvature="0"
         id="path1515"
         d="m 4.2047018,294.7371 c 0,0 0.3328473,0.10098 0.4780177,-0.004 0.1116167,-0.0809 0.1808196,-0.17622 0.054495,-0.38623 -0.1865841,-0.31019 -0.3130292,-0.1041 -0.5308215,-0.27226 -0.1393452,-0.17696 -0.046534,-0.35474 -0.2648682,-0.26758 -0.1670282,0.34852 0.054387,0.87483 0.2631765,0.93034 z"
         style="fill:#000000;fill-opacity:1;stroke:none;stroke-width:0.04455796px;stroke-linecap:butt;stroke-linejoin:miter;stroke-opacity:1" />
      <path
         style="fill:none;stroke:#000000;stroke-width:0.26458332;stroke-linecap:butt;stroke-linejoin:miter;stroke-miterlimit:4;stroke-dasharray:none;stroke-opacity:1"
         d="m 3.0998959,289.99491 c -1.150935,-0.3959 -2.29943606,-0.42258 -2.76681336,0.60832 0.2616002,0.80648 1.49582486,0.7962 2.08179136,0.3858 0.2785481,-0.1951 0.6850217,-0.99412 0.685022,-0.99412 z"
         id="path1517"
         inkscape:connector-curvature="0"
         sodipodi:nodetypes="ccsc" />
      <path
         style="fill:#000000;fill-opacity:1;stroke:none;stroke-width:0.04455796px;stroke-linecap:butt;stroke-linejoin:miter;stroke-opacity:1"
         d="m 6.3592444,294.7371 c 0,0 -0.3328474,0.10098 -0.4780176,-0.004 -0.1116167,-0.0809 -0.1808197,-0.17622 -0.054495,-0.38623 0.1865841,-0.31019 0.3130292,-0.1041 0.5308215,-0.27226 0.1393453,-0.17696 0.046534,-0.35474 0.2648682,-0.26758 0.1670282,0.34852 -0.054387,0.87483 -0.2631765,0.93034 z"
         id="path1521-5"
         inkscape:connector-curvature="0"
         sodipodi:nodetypes="csscccc" />
      <path
         style="fill:#000000;fill-opacity:1;stroke:none;stroke-width:0.26458332px;stroke-linecap:butt;stroke-linejoin:miter;stroke-opacity:1"
         d="m 3.5085958,291.13451 c -0.2081074,0.0417 -0.4871787,0.27262 -0.4238253,0.47519 0.070976,0.22695 0.4646568,0.23144 0.6935324,0.16697 0.1573449,-0.0443 0.3743063,-0.18564 0.346766,-0.34677 -0.038389,-0.22461 -0.3930535,-0.34017 -0.6164731,-0.29539 z"
         id="path5309"
         inkscape:connector-curvature="0"
         sodipodi:nodetypes="aaaaa" />
      <path
         sodipodi:nodetypes="aaaaa"
         inkscape:connector-curvature="0"
         id="path5311"
         d="m 7.0055014,291.13451 c 0.2081074,0.0417 0.4871787,0.27262 0.4238251,0.47519 -0.070976,0.22695 -0.4646568,0.23144 -0.6935325,0.16697 -0.1573449,-0.0443 -0.3743062,-0.18564 -0.3467659,-0.34677 0.038389,-0.22461 0.3930534,-0.34017 0.6164733,-0.29539 z"
         style="fill:#000000;fill-opacity:1;stroke:none;stroke-width:0.26458332px;stroke-linecap:butt;stroke-linejoin:miter;stroke-opacity:1" />
    </g>
  </g>
</svg>
