<?xml version="1.0" encoding="UTF-8" standalone="no"?>
<!-- Created with Inkscape (http://www.inkscape.org/) -->

<svg
   xmlns:dc="http://purl.org/dc/elements/1.1/"
   xmlns:cc="http://creativecommons.org/ns#"
   xmlns:rdf="http://www.w3.org/1999/02/22-rdf-syntax-ns#"
   xmlns:svg="http://www.w3.org/2000/svg"
   xmlns="http://www.w3.org/2000/svg"
   xmlns:sodipodi="http://sodipodi.sourceforge.net/DTD/sodipodi-0.dtd"
   xmlns:inkscape="http://www.inkscape.org/namespaces/inkscape"
   width="40"
   height="40"
   viewBox="0 0 10.583333 10.583334"
   version="1.1"
   id="svg1463"
   inkscape:version="0.92.5 (2060ec1f9f, 2020-04-08)"
   sodipodi:docname="dog-solid.svg">
  <defs
     id="defs1457" />
  <sodipodi:namedview
     id="base"
     pagecolor="#ffffff"
     bordercolor="#666666"
     borderopacity="1.0"
     inkscape:pageopacity="0.0"
     inkscape:pageshadow="2"
     inkscape:zoom="1.325"
     inkscape:cx="-166.80005"
     inkscape:cy="138.09211"
     inkscape:document-units="px"
     inkscape:current-layer="layer1"
     showgrid="false"
     units="px"
     inkscape:window-width="1920"
     inkscape:window-height="1017"
     inkscape:window-x="-8"
     inkscape:window-y="-8"
     inkscape:window-maximized="1" />
  <metadata
     id="metadata1460">
    <rdf:RDF>
      <cc:Work
         rdf:about="">
        <dc:format>image/svg+xml</dc:format>
        <dc:type
           rdf:resource="http://purl.org/dc/dcmitype/StillImage" />
        <dc:title />
      </cc:Work>
    </rdf:RDF>
  </metadata>
  <g
     inkscape:label="Layer 1"
     inkscape:groupmode="layer"
     id="layer1"
     transform="translate(0,-286.41665)">
    <path
       style="display:inline;opacity:1;fill:#000;fill-opacity:1;stroke:none;stroke-width:0.36584976;stroke-linecap:round;stroke-linejoin:miter;stroke-miterlimit:4;stroke-dasharray:none;stroke-opacity:0.94117647"
       d="m 4.7172294,286.67083 c -0.7586102,-0.001 -1.3523582,0.34873 -1.9434937,0.677 -0.017091,0.01 -0.036215,0.0146 -0.055774,0.0149 0,0 -0.1722752,0.002 -0.354949,0.0257 -0.1826769,0.0235 -0.4066575,0.10277 -0.4819415,0.1779 -0.1635472,0.16323 -0.2706486,0.30483 -0.4172994,0.61666 -0.1466537,0.31182 -0.2716048,0.67171 -0.4627782,0.90524 -0.21404158,0.26146 -0.28706458,0.57184 -0.36009638,0.79599 -0.05503,0.16889 -0.1413891,0.24176 -0.2013569,0.30776 -0.059978,0.066 -0.1225743,0.14876 -0.2013569,0.41873 -0.028918,0.24277 0.00492,0.42355 0.1690358,0.71562 0.1641154,0.29206 0.4044257,0.55703 0.59634888,0.70675 0.00712,0.006 0.013765,0.0118 0.019449,0.0189 0.1693872,0.20958 0.1876031,0.4534 0.1747573,0.61322 -0.012858,0.15982 -0.029637,0.27795 0.086091,0.46078 0.1821042,0.28767 0.2460962,0.2771 0.3503727,0.28258 0.1033173,0.005 0.2581102,-0.14643 0.3440801,-0.26228 0.2589038,-0.34888 0.5220429,-0.69727 0.4556273,-1.22101 -0.1486936,-1.17259 -0.04548,-2.18181 -0.00658,-3.30895 0.019503,0.41169 -0.06457,2.54762 0.08427,3.2792 0.067337,0.53102 0.221576,1.18136 -0.3030707,1.69495 -0.031849,0.39086 -0.097124,1.12014 -0.2102224,1.56223 -0.1529697,0.59794 -0.6072177,1.57911 -0.6072177,1.57911 l 7.9135542,0.014 c 0,0 -0.4685422,-1.02792 -0.6206596,-1.62544 -0.1028663,-0.40408 -0.1671394,-1.01171 -0.2050751,-1.4298 -0.028946,-0.0215 -0.070759,-0.0758 -0.095815,-0.0973 -0.00148,-0.001 -0.00265,-0.002 -0.00401,-0.003 -0.4211143,-0.65321 -0.2968469,-1.15975 -0.2316747,-1.70095 0.085035,-1.13869 5.82e-4,-1.78384 2.91e-4,-3.23172 -7.33e-5,-0.19923 0.00228,-0.20947 0.00228,-0.01 0.052297,1.4025 0.1698837,1.93618 0.064565,3.20799 -0.066414,0.52374 0.1411314,1.00464 0.455131,1.37918 0.077103,0.092 0.2090142,0.18476 0.3123316,0.17933 0.1042765,-0.005 0.1551152,-0.0453 0.3372149,-0.33293 0.1157282,-0.18282 0.059763,-0.39848 0.046908,-0.5583 -0.012859,-0.15982 0.047703,-0.28209 0.2170877,-0.49167 0.00568,-0.007 0.012038,-0.0136 0.019164,-0.0192 0.1919232,-0.14972 0.3867592,-0.33003 0.5508723,-0.62209 0.164115,-0.29207 0.248488,-0.58005 0.173612,-0.83661 -0.07879,-0.26997 -0.141379,-0.31383 -0.201357,-0.37983 -0.05997,-0.066 -0.1397553,-0.13887 -0.1947778,-0.30775 -0.073039,-0.22416 -0.1188842,-0.5025 -0.3329258,-0.76396 -0.1911643,-0.23353 -0.3161154,-0.5611 -0.4627692,-0.87293 -0.1466535,-0.31182 -0.2602468,-0.54438 -0.488805,-0.70761 -0.086556,-0.0618 -0.2992721,-0.11553 -0.4819401,-0.139 -0.1826755,-0.0235 -0.3357857,-0.0257 -0.3357857,-0.0257 -0.019503,-3e-4 -0.038444,-0.005 -0.055488,-0.0149 -0.7149502,-0.39702 -1.4551134,-0.82119 -2.455753,-0.60864 -0.016503,0.003 -0.033604,0.003 -0.050054,-3e-4 -0.1920756,-0.0424 -0.374663,-0.0612 -0.5497264,-0.0615 z m -0.93242,2.30616 c 0.1185193,0.005 0.21438,0.083 0.280012,0.17648 0.065636,0.0935 0.1059884,0.20753 0.088095,0.31891 -0.016174,0.10069 -0.086481,0.17455 -0.1647466,0.22452 -0.07827,0.05 -0.1683316,0.08 -0.2505524,0.0918 -0.078727,0.0113 -0.1749682,0.0105 -0.2651395,-0.0134 -0.090168,-0.0239 -0.185115,-0.0778 -0.212797,-0.18162 -0.039518,-0.14821 0.030476,-0.30028 0.1324255,-0.41673 0.1019525,-0.11645 0.2426272,-0.2061 0.3927031,-0.19993 z m 3.035513,0 c 0.1500775,-0.006 0.2904649,0.0835 0.3924173,0.19993 0.1019512,0.11645 0.1719414,0.26852 0.1324256,0.41673 -0.027685,0.10382 -0.1226286,0.15767 -0.212797,0.18162 -0.090168,0.024 -0.1861269,0.0247 -0.2648521,0.0134 -0.082221,-0.0118 -0.1722869,-0.0419 -0.2505525,-0.0918 -0.07827,-0.05 -0.1485691,-0.12383 -0.1647465,-0.22452 -0.017899,-0.11138 0.022172,-0.22545 0.087808,-0.31891 0.065634,-0.0935 0.1617768,-0.17161 0.2802977,-0.17648 z m -1.4552612,1.4484 c 0.3138985,0 0.9284808,0.15952 0.9347075,0.35581 0.029805,0.43491 -0.3455328,0.30632 -0.5331375,0.71962 -0.062828,0.13841 -0.2971469,0.23825 -0.40157,0.23825 -0.1044258,0 -0.3390279,-0.0998 -0.4018556,-0.23825 -0.1876046,-0.4133 -0.5626571,-0.28471 -0.5328517,-0.71962 0.00624,-0.19629 0.6208088,-0.35581 0.9347073,-0.35581 z m 0.00228,1.74099 c 0.1133853,0.002 0.086017,0.12562 0.2462617,0.42531 0.097136,0.18167 0.1028811,0.1916 0.3789744,0.57633 -0.2099472,-0.0299 -0.3746659,-0.0173 -0.6352466,0.0349 -0.2639066,-0.0591 -0.3176167,-0.0576 -0.6037853,-0.0397 0.2543278,-0.38036 0.2556341,-0.37544 0.3606692,-0.54859 0.1583235,-0.26098 0.1548982,-0.44694 0.2531266,-0.44819 z m 1.8908673,0.66843 c 0.085917,4.2e-4 0.1670487,0.0548 0.1175528,0.13157 -0.082348,0.2126 -0.1984031,0.41973 -0.2834447,0.63553 -0.1062374,0.26958 -0.2805187,0.57129 -0.2828719,0.82202 -2.91e-4,0.0446 -0.016999,0.0892 -0.04519,0.12012 -0.02821,0.031 -0.063447,0.0483 -0.098677,0.0595 -0.070462,0.0224 -0.1469657,0.0236 -0.2222365,0.0237 -0.089041,3e-4 -0.1614488,0.025 -0.2456892,0.0309 -0.1528905,0.35415 -0.4222242,0.55114 -0.8371761,0.54201 -0.4507097,0.0236 -0.709381,-0.25123 -0.8300251,-0.50625 -0.051253,-0.008 -0.177528,-0.0432 -0.2502654,-0.048 -0.072736,-0.005 -0.1466874,-0.0111 -0.2142276,-0.0383 -0.033768,-0.0136 -0.067123,-0.0336 -0.092957,-0.0652 -0.025829,-0.0316 -0.040793,-0.0746 -0.041187,-0.11841 -0.00235,-0.25073 -0.1784668,-0.55172 -0.2828722,-0.82202 -0.082387,-0.21329 -0.2007827,-0.46485 -0.2708592,-0.6301 -0.053438,-0.12266 0.1888828,-0.19339 0.2765793,-0.0649 l 0.135287,0.24083 c 0.052212,0.0883 0.114359,0.17203 0.1770462,0.22453 0.062686,0.0525 0.1831321,0.0757 0.2408272,0.0621 0.075403,-0.0179 0.1744686,-0.0654 0.2173732,-0.0789 0.036351,0.66524 0.2729227,1.64861 0.9327054,1.6283 0.6345175,0.027 0.8824236,-0.9683 0.9358527,-1.63345 0.059004,0.0165 0.170723,0.0677 0.2399692,0.0841 0.057875,0.0134 0.178304,-0.01 0.2408272,-0.0624 0.062687,-0.0525 0.1248368,-0.13594 0.1770446,-0.22424 l 0.1738993,-0.24826 c 0.027942,-0.0458 0.081161,-0.0649 0.1327139,-0.0646 z"
       id="path4211"
       inkscape:connector-curvature="0"
       sodipodi:nodetypes="ccccccccccccccccccccccccccccccccscccccccccccccccccccccccccccccccccccccsccsccsccccccccccccccccccccccccccccccccccccc" />
  </g>
</svg>
