<?xml version="1.0" encoding="UTF-8" standalone="no"?>
<!-- Created with Inkscape (http://www.inkscape.org/) -->

<svg
   xmlns:dc="http://purl.org/dc/elements/1.1/"
   xmlns:cc="http://creativecommons.org/ns#"
   xmlns:rdf="http://www.w3.org/1999/02/22-rdf-syntax-ns#"
   xmlns:svg="http://www.w3.org/2000/svg"
   xmlns="http://www.w3.org/2000/svg"
   xmlns:sodipodi="http://sodipodi.sourceforge.net/DTD/sodipodi-0.dtd"
   xmlns:inkscape="http://www.inkscape.org/namespaces/inkscape"
   width="40"
   height="40"
   viewBox="0 0 10.583333 10.583334"
   version="1.1"
   id="svg882"
   inkscape:version="0.92.5 (2060ec1f9f, 2020-04-08)"
   sodipodi:docname="horse-solid.svg">
  <defs
     id="defs876" />
  <sodipodi:namedview
     id="base"
     pagecolor="#ffffff"
     bordercolor="#666666"
     borderopacity="1.0"
     inkscape:pageopacity="0.0"
     inkscape:pageshadow="2"
     inkscape:zoom="20.986929"
     inkscape:cx="3.0576964"
     inkscape:cy="20.106672"
     inkscape:document-units="px"
     inkscape:current-layer="layer1"
     showgrid="false"
     units="px"
     inkscape:window-width="1920"
     inkscape:window-height="1017"
     inkscape:window-x="-8"
     inkscape:window-y="-8"
     inkscape:window-maximized="1" />
  <metadata
     id="metadata879">
    <rdf:RDF>
      <cc:Work
         rdf:about="">
        <dc:format>image/svg+xml</dc:format>
        <dc:type
           rdf:resource="http://purl.org/dc/dcmitype/StillImage" />
        <dc:title />
      </cc:Work>
    </rdf:RDF>
  </metadata>
  <g
     inkscape:label="Layer 1"
     inkscape:groupmode="layer"
     id="layer1"
     transform="translate(0,-286.41664)">
    <path
       sodipodi:nodetypes="cccccccccccccccscccccccccccccccccccccccsccccs"
       inkscape:connector-curvature="0"
       id="path4741"
       d="m 1.4352287,287.83071 0.5321472,0.9377 c -0.027037,0.0622 -0.1669763,0.567 -0.3181808,0.81468 -0.012055,0.0194 -0.018321,0.0422 -0.018331,0.0651 0,0.14618 0.00741,0.21874 0.053407,0.34828 0.03764,0.10606 0.063326,0.16043 0.075812,0.18828 -0.1448841,0.63995 -0.2993294,1.28241 -0.4397051,1.92132 -0.010989,0.30009 0.026409,0.54659 0.1468703,0.74408 0.1204609,0.19754 0.3210281,0.33138 0.5904222,0.41345 0.2694395,0.082 0.6198118,0.04 0.8764683,-0.14099 0.3956096,-0.27918 0.6118403,-0.82287 0.7884367,-1.31979 0.4602319,-0.25379 0.7116914,-0.42745 0.8407126,-0.63772 0.053495,-0.0871 0.072696,-0.22664 0.1016096,-0.32407 0.1150531,0.65134 0.1609245,1.16939 0.1246926,1.52392 -0.045846,0.44859 -0.1751648,0.72535 -0.3222544,1.01361 -0.1470899,0.28824 -0.3139174,0.58797 -0.4032704,1.04189 -0.089353,0.45393 -0.1021216,1.05762 0.039829,1.96816 0.00962,0.061 0.062488,0.1056 0.1242399,0.105 2.8224933,-0.0167 4.4154152,-1.89838 4.9331607,-3.39114 0.191465,-0.55199 0.1051077,-1.20216 -0.1622585,-1.855 -0.2673658,-0.65286 -0.7184179,-1.31231 -1.2806441,-1.89007 -1.1113911,-1.14199 -2.4571023,-1.96621 -3.9093697,-1.71402 -0.4909638,-0.18896 -0.4968889,-0.44112 -1.6739571,-0.71081 -0.015187,-0.007 -0.031497,-0.01 -0.047976,-0.01 -0.085986,-5e-5 -0.0522,0.0966 -0.023535,0.17764 l 0.4078938,0.87092 -0.3913737,-0.89083 c -0.00862,-0.11624 0.01695,-0.0533 0.082826,-0.004 0.4091666,0.25952 0.9827557,0.76508 1.0364638,0.92422 0.015034,0.0442 0.00457,0.0758 0.0043,0.0788 -0.1471939,-0.002 -0.4610307,0.12961 -0.5886119,0.23264 l -0.1586335,-0.36483 c -0.011716,-0.006 -0.019679,-0.0119 -0.033719,-0.0183 -0.1642139,-0.0759 -0.5008863,-0.14786 -0.8348287,-0.27835 -0.1078636,-0.0437 -0.2096243,0.0708 -0.1568273,0.17244 v 0 c -0.011826,-0.0592 0.1188249,-0.0129 0.2009562,0.0441 0.1956772,0.13596 0.37764,0.35625 0.5587401,0.58794 -0.085937,0.17308 -0.086825,0.1898 -0.1409862,0.3718 m -0.2158923,3.48302 c 0.053898,-0.003 0.1195077,0.0102 0.1909991,0.0602 0.1912739,0.13484 0.2018114,0.38315 0.01901,0.34307 -0.079597,-0.0381 -0.1248011,-0.043 -0.2382962,-0.081 -0.1158741,-0.0234 -0.1546253,-0.15508 -0.1192613,-0.26682 10e-8,0 0.05772,-0.0504 0.1475491,-0.0555 z"
       style="color:#000000;font-style:normal;font-variant:normal;font-weight:normal;font-stretch:normal;font-size:medium;line-height:normal;font-family:sans-serif;text-indent:0;text-align:start;text-decoration:none;text-decoration-line:none;text-decoration-style:solid;text-decoration-color:#000000;letter-spacing:normal;word-spacing:normal;text-transform:none;writing-mode:lr-tb;direction:ltr;baseline-shift:baseline;text-anchor:start;white-space:normal;clip-rule:nonzero;display:inline;overflow:visible;visibility:visible;opacity:1;isolation:auto;mix-blend-mode:normal;color-interpolation:sRGB;color-interpolation-filters:linearRGB;solid-color:#000000;solid-opacity:1;fill:#000;fill-opacity:1;fill-rule:nonzero;stroke:#000;stroke-width:0.11586671;stroke-linecap:round;stroke-linejoin:round;stroke-miterlimit:4;stroke-dasharray:none;stroke-dashoffset:0;stroke-opacity:1;color-rendering:auto;image-rendering:auto;shape-rendering:auto;text-rendering:auto;enable-background:accumulate" />
  </g>
</svg>
